<svg width="243" height="42" viewBox="0 0 243 42" fill="none" xmlns="http://www.w3.org/2000/svg">
<path d="M159.5 40.6H125.1V9.2V9.10001L133 1.2H133.1H159.3V40.8L159.5 40.6Z" fill="#3EBCA2"/>
<path d="M236.5 1H162.8V40.2H236.5C240.1 40.2 243 37.3 243 33.7V7.5C243 3.9 240.1 1 236.5 1Z" fill="#3EBCA2"/>
<path d="M17.1 1.10001H24.3L41.5 40.6H31.7L28.3 32.2H12.9L9.6 40.6H0L17.1 1.10001ZM20.4 12.6L15.6 24.9H25.3L20.4 12.6Z" fill="#3EBCA2"/>
<path d="M66.6001 11.4C65.7001 10.4 64.7001 9.6 63.4001 9C62.2001 8.4 60.7001 8.2 59.1001 8.2C57.5001 8.2 55.9001 8.5 54.6001 9.2C53.2001 9.8 52.0001 10.7 51.0001 11.8C50.0001 12.9 49.2001 14.3 48.6001 15.8C48.0001 17.4 47.7001 19 47.7001 20.9C47.7001 22.8 48.0001 24.5 48.6001 26C49.2001 27.5 50.0001 28.9 51.0001 30C52.0001 31.1 53.2001 32 54.5001 32.6C55.9001 33.2 57.3001 33.6 58.9001 33.6C60.5001 33.6 62.3001 33.2 63.6001 32.5C65.0001 31.8 66.1001 30.7 67.0001 29.4L74.2001 34.8C72.5001 37.1 70.4001 38.9 67.8001 40C65.2001 41.1 62.6001 41.7 59.9001 41.7C57.2001 41.7 54.0001 41.2 51.4001 40.2C48.8001 39.2 46.5001 37.8 44.6001 36C42.7001 34.2 41.2001 32 40.2001 29.4C39.1001 26.8 38.6001 24 38.6001 20.8C38.6001 17.6 39.1001 14.8 40.2001 12.2C41.3001 9.6 42.7001 7.40001 44.6001 5.60001C46.5001 3.80001 48.8001 2.39999 51.4001 1.39999C54.0001 0.399994 56.9001 0 59.9001 0C62.9001 0 62.2001 0.100003 63.4001 0.300003C64.6001 0.500003 65.8001 0.800003 67.0001 1.3C68.2001 1.7 69.3001 2.30001 70.4001 3.10001C71.5001 3.80001 72.5001 4.8 73.3001 5.8L66.6001 11.3V11.4Z" fill="#3EBCA2"/>
<path d="M77.1001 1.10001H90.3001L99.4001 26.9H99.5001L108.7 1.10001H121.8V40.6H113.1V10.3H113L102.6 40.6H96.0001L86.0001 10.3H85.9001V40.6H77.2001V1.10001H77.1001Z" fill="#3EBCA2"/>
<path d="M184.2 12.7C183.6 12 182.9 11.5 181.9 11.1C180.9 10.8 180 10.6 179.2 10.6C178.4 10.6 178.2 10.6 177.6 10.8C177 11 176.6 11.1 176.1 11.3C175.6 11.5 175.2 11.9 175 12.3C174.7 12.7 174.6 13.2 174.6 13.8C174.6 14.7 175 15.5 175.7 16C176.4 16.5 177.3 16.9 178.4 17.3C179.5 17.7 180.6 18 181.9 18.4C183.1 18.8 184.3 19.3 185.4 19.9C186.5 20.5 187.4 21.4 188.1 22.5C188.8 23.6 189.2 25 189.2 26.9C189.2 28.8 188.9 30.2 188.2 31.5C187.6 32.8 186.7 33.9 185.6 34.7C184.5 35.6 183.2 36.2 181.7 36.6C180.2 37 178.7 37.2 177.1 37.2C175.5 37.2 173.2 36.9 171.4 36.3C169.7 35.7 168 34.7 166.5 33.3L171.4 27.9C172.1 28.8 173 29.6 174.1 30.1C175.2 30.6 176.3 30.9 177.4 30.9C178.5 30.9 178.5 30.9 179.1 30.7C179.7 30.6 180.2 30.4 180.7 30.1C181.2 29.8 181.5 29.5 181.8 29.1C182.1 28.7 182.2 28.2 182.2 27.6C182.2 26.7 181.8 25.9 181.1 25.4C180.4 24.9 179.5 24.4 178.4 24C177.3 23.6 176.1 23.2 174.9 22.9C173.6 22.5 172.5 22 171.4 21.4C170.3 20.8 169.4 19.9 168.7 18.8C168 17.7 167.6 16.3 167.6 14.6C167.6 12.9 167.9 11.4 168.6 10.2C169.3 8.9 170.2 7.9 171.3 7C172.4 6.1 173.7 5.50001 175.1 5.10001C176.5 4.70001 178 4.5 179.6 4.5C181.2 4.5 183.1 4.7 184.7 5.3C186.3 5.8 187.8 6.6 189.2 7.8L184.5 13L184.2 12.7Z" fill="white"/>
<path d="M192.1 5.10001H199V36.4H192.1V5.10001Z" fill="white"/>
<path d="M202.3 5.10001H212.7L219.9 25.6L227.2 5.2H237.6V36.5H230.7V12.5L222.5 36.5H217.2L209.3 12.5V36.5H202.4V5.2L202.3 5.10001Z" fill="white"/>
<path d="M154.1 32.4C152.8 34 151.2 35.3 149.3 36.1C147.4 36.9 145.4 37.4 143.3 37.4C141.2 37.4 139.5 37.1 137.7 36.4C136 35.8 134.5 34.9 133.2 33.7C131.9 32.5 130.9 31.1 130.2 29.5C129.5 27.9 129.1 26 129.1 24C129.1 22 129.5 20.1 130.2 18.5C130.9 16.9 132 15.4 133.2 14.3C134.5 13.1 136 12.2 137.7 11.6C139.4 11 141.3 10.6 143.3 10.6C145.3 10.6 146.8 10.9 148.3 11.6C149.8 12.2 151.1 13.1 152.1 14.3C153.1 15.5 153.9 16.9 154.5 18.5C155.1 20.1 155.3 22 155.3 24V26.5H137C137.3 28 138 29.2 139.1 30.1C140.2 31 141.5 31.4 143 31.4C144.5 31.4 145.4 31.1 146.3 30.5C147.2 29.9 148 29.2 148.6 28.3L154.1 32.4ZM147.5 21.1C147.5 19.8 147.1 18.6 146.2 17.7C145.3 16.7 144.1 16.3 142.7 16.3C141.3 16.3 141.1 16.4 140.4 16.7C139.7 17 139.2 17.3 138.7 17.8C138.2 18.2 137.9 18.8 137.6 19.3C137.3 19.9 137.2 20.5 137.2 21.1H147.6H147.5Z" fill="white"/>
</svg>
